<svg id="Layer_1" data-name="Layer 1" xmlns="http://www.w3.org/2000/svg" viewBox="0 0 122.88 101.39">
    <defs>
        <style>.cls-1{fill-rule:evenodd;}</style>
    </defs>
    <title>online-seller</title>
    <path class="cls-1" d="M119.9,27.76V84.88a3.32,3.32,0,0,1-3.32,3.32h-40c.18,5.07,2.36,9.61,8,13.19H38.31c4.59-3.32,7.93-7.33,8-13.19H6.3A3.33,3.33,0,0,1,3,84.88V27.77a15.27,15.27,0,0,1-3-9.12V12.91H0a1.77,1.77,0,0,1,.19-.82L10.82.85A1.53,1.53,0,0,1,12.16,0h97.7a1.53,1.53,0,0,1,1.39.94L122.65,12a1.66,1.66,0,0,1,.22.77h0a.91.91,0,0,1,0,.17v5.68a15.27,15.27,0,0,1-3,9.11ZM7.33,31.53V60.84h35.1a21.32,21.32,0,0,0,1.29,2.68H7.33v9.06a3,3,0,0,0,2.94,2.93H112.62a3,3,0,0,0,2.94-2.93V63.52H79.16a21.32,21.32,0,0,0,1.29-2.68h35.11V31.62l-.13.06a13.23,13.23,0,0,1-5.5,1.43,15.49,15.49,0,0,1-6.29-1.23A13.78,13.78,0,0,1,99.8,29a15,15,0,0,1-2.43-3.57A14.72,14.72,0,0,1,94.94,29a12.79,12.79,0,0,1-19.1,0,14.72,14.72,0,0,1-2.43-3.57A14.75,14.75,0,0,1,71,29a12.79,12.79,0,0,1-19.1,0,15.31,15.31,0,0,1-2.43-3.57A14.44,14.44,0,0,1,47,29a12.79,12.79,0,0,1-19.1,0,15,15,0,0,1-2.43-3.57A15,15,0,0,1,23.05,29a13.45,13.45,0,0,1-5.88,3.74,14.5,14.5,0,0,1-7.48-.21,14.43,14.43,0,0,1-2.36-1ZM5.44,11.32H24.28l3.7-8H13.06l-7.62,8Zm67.82-8,1.54,8H95.37l-4.21-8Zm-1.55,8-1.53-8H52.65l-1.51,8Zm-23.65,0,1.51-8H31.14l-3.7,8Zm46.28-8,4.21,8h18.78l-8.34-8Zm4.58,11.31v4a11.69,11.69,0,0,0,3.06,8,9.84,9.84,0,0,0,14.74,0,11.7,11.7,0,0,0,3.07-8v-4Zm-24,0v4a11.65,11.65,0,0,0,3.07,8,9.84,9.84,0,0,0,14.74,0,11.7,11.7,0,0,0,3.07-8v-4Zm-24,0v4a11.69,11.69,0,0,0,3.06,8,9.84,9.84,0,0,0,14.74,0,11.7,11.7,0,0,0,3.07-8v-4Zm-24,0v4a11.65,11.65,0,0,0,3.07,8,9.84,9.84,0,0,0,14.74,0,11.7,11.7,0,0,0,3.07-8v-4Zm-3.08,0H3.08v4a11.65,11.65,0,0,0,3.07,8,10,10,0,0,0,7.37,3.32,10,10,0,0,0,7.36-3.32,11.71,11.71,0,0,0,3.08-8v-4ZM61.44,37.53a15.71,15.71,0,0,1,6.06,1.2h0a15.69,15.69,0,0,1,5.11,3.43,15.83,15.83,0,0,1,3.45,17.25l0,0a15.82,15.82,0,0,1-3.42,5.11l0,0A15.8,15.8,0,0,1,55.38,68,15.85,15.85,0,0,1,46.8,47.31v0a15.83,15.83,0,0,1,14.63-9.75ZM50,61.88l.06,0c1.52-.84,5.48-1.12,7.13-2.27a4.46,4.46,0,0,0,.37-.73c.19-.43.36-.9.47-1.22a16.33,16.33,0,0,1-1.23-1.76l-1.24-2a3.55,3.55,0,0,1-.71-1.81,1.37,1.37,0,0,1,.12-.65,1.22,1.22,0,0,1,.43-.5,1.4,1.4,0,0,1,.3-.15,32.28,32.28,0,0,1-.06-3.56,4.64,4.64,0,0,1,.16-.81,4.74,4.74,0,0,1,2.1-2.68,6.61,6.61,0,0,1,1.76-.78c.4-.11-.23-1.09.18-1.14,2-.2,5.07,1.32,6.45,2.82a4.8,4.8,0,0,1,1.22,3.05l-.07,3.23h0a.9.9,0,0,1,.65.68,2.75,2.75,0,0,1-.34,1.7h0a.08.08,0,0,1,0,0l-1.42,2.34a12.08,12.08,0,0,1-1.74,2.4l.19.27a8.61,8.61,0,0,0,.92,1.19s0,0,0,0c1.64,1.16,5.62,1.44,7.14,2.29l.07,0a14.28,14.28,0,1,0-22.92,0Z" />
</svg>